<?xml version="1.0" standalone="no"?>
<!DOCTYPE svg PUBLIC "-//W3C//DTD SVG 20010904//EN"
 "http://www.w3.org/TR/2001/REC-SVG-20010904/DTD/svg10.dtd">
<svg version="1.0" xmlns="http://www.w3.org/2000/svg"
 width="92.000000pt" height="66.000000pt" viewBox="0 0 92.000000 66.000000"
 preserveAspectRatio="xMidYMid meet">

<g transform="translate(0.000000,66.000000) scale(0.100000,-0.100000)" stroke="none">
<path d="M120 640 c0 -18 7 -20 72 -20 l72 0 -34 -35 -34 -35 -93 0 c-86 0
-93 -1 -93 -20 0 -18 7 -20 68 -20 38 0 71 -2 74 -5 3 -3 -3 -29 -13 -58 -31
-88 -23 -179 26 -289 6 -16 1 -18 -40 -18 -39 0 -46 -3 -43 -17 3 -15 16 -19
67 -21 38 -2 74 -10 89 -20 26 -17 23 -17 -98 -22 -117 -5 -125 -6 -125 -25 0
-19 7 -20 245 -20 284 0 316 7 399 81 182 164 118 478 -113 549 -37 11 -99 15
-238 15 -181 0 -188 -1 -188 -20z m422 -129 c119 -76 139 -206 47 -306 -77
-84 -177 -96 -261 -31 -77 58 -108 151 -77 233 13 37 76 102 114 119 53 24
125 18 177 -15z"/>
<path d="M387 392 c-22 -24 -22 -95 -1 -113 25 -21 93 -17 110 6 20 27 18 88
-4 108 -25 23 -85 22 -105 -1z"/>
<path d="M770 478 c0 -2 7 -21 15 -43 21 -60 19 -154 -6 -221 -15 -40 -40 -76
-80 -118 -33 -33 -59 -61 -59 -63 0 -8 69 -1 101 11 29 10 44 10 80 -1 92 -27
103 -16 74 68 -13 36 -14 48 -3 74 20 47 15 143 -10 191 -20 40 -83 104 -102
104 -6 0 -10 -1 -10 -2z"/>
</g>
</svg>
