<?xml version="1.0" standalone="no"?>
<!DOCTYPE svg PUBLIC "-//W3C//DTD SVG 20010904//EN"
 "http://www.w3.org/TR/2001/REC-SVG-20010904/DTD/svg10.dtd">
<svg version="1.0" xmlns="http://www.w3.org/2000/svg"
 width="257.000000pt" height="68.000000pt" viewBox="0 0 257.000000 68.000000"
 preserveAspectRatio="xMidYMid meet">

<g transform="translate(0.000000,68.000000) scale(0.100000,-0.100000)"
fill="#000000" stroke="none">
<path d="M140 640 c0 -18 7 -20 72 -20 l72 0 -34 -35 -34 -35 -93 0 c-86 0
-93 -1 -93 -20 0 -18 7 -20 68 -20 38 0 71 -2 74 -5 3 -3 -3 -29 -13 -58 -31
-88 -23 -179 26 -289 6 -16 1 -18 -40 -18 -39 0 -46 -3 -43 -17 3 -15 16 -19
67 -21 38 -2 74 -10 89 -20 26 -17 23 -17 -98 -22 -117 -5 -125 -6 -125 -25 0
-19 7 -20 245 -20 284 0 316 7 399 81 182 164 118 478 -113 549 -37 11 -99 15
-238 15 -181 0 -188 -1 -188 -20z m422 -129 c119 -76 139 -206 47 -306 -77
-84 -177 -96 -261 -31 -77 58 -108 151 -77 233 13 37 76 102 114 119 53 24
125 18 177 -15z"/>
<path d="M407 392 c-22 -24 -22 -95 -1 -113 25 -21 93 -17 110 6 20 27 18 88
-4 108 -25 23 -85 22 -105 -1z"/>
<path d="M1760 493 c-8 -3 -25 -15 -37 -26 -21 -19 -23 -29 -23 -123 0 -92 2
-106 23 -129 17 -20 32 -26 64 -27 54 -1 88 22 97 63 13 65 10 69 -39 69 l-45
0 0 -42 c0 -32 -3 -39 -10 -28 -13 20 -13 177 0 185 6 4 10 -10 10 -34 l0 -41
46 0 47 0 -7 47 c-3 26 -14 56 -24 66 -19 19 -77 30 -102 20z"/>
<path d="M1050 340 l0 -150 40 0 40 0 0 60 c0 57 1 60 25 60 22 0 25 4 25 35
0 31 -3 35 -25 35 -20 0 -25 5 -25 25 0 20 5 25 25 25 21 0 25 5 25 30 l0 30
-65 0 -65 0 0 -150z"/>
<path d="M790 478 c0 -2 7 -21 15 -43 21 -60 19 -154 -6 -221 -15 -40 -40 -76
-80 -118 -33 -33 -59 -61 -59 -63 0 -8 69 -1 101 11 29 10 44 10 80 -1 92 -27
103 -16 74 68 -13 36 -14 48 -3 74 20 47 15 143 -10 191 -20 40 -83 104 -102
104 -6 0 -10 -1 -10 -2z"/>
<path d="M1578 443 c-3 -16 -2 -74 1 -131 7 -114 11 -122 74 -122 33 0 37 3
37 25 0 16 -6 25 -15 25 -12 0 -15 15 -15 75 0 43 4 75 10 75 6 0 10 9 10 20
0 11 -4 20 -10 20 -5 0 -10 9 -10 20 0 17 -7 20 -39 20 -34 0 -39 -3 -43 -27z"/>
<path d="M1222 424 c-15 -11 -22 -25 -22 -50 0 -32 2 -34 33 -35 l32 0 -32
-16 c-30 -15 -33 -21 -33 -64 0 -25 6 -51 13 -57 6 -6 45 -10 85 -11 l74 -1
-4 111 c-3 96 -6 113 -22 125 -26 19 -96 18 -124 -2z m68 -53 c0 -11 -4 -23
-10 -26 -6 -4 -10 5 -10 19 0 14 5 26 10 26 6 0 10 -9 10 -19z m0 -101 c0 -16
-4 -30 -10 -30 -11 0 -14 43 -3 53 11 12 13 8 13 -23z"/>
<path d="M1406 418 c-19 -27 -21 -69 -3 -90 6 -8 27 -25 45 -37 30 -21 44 -51
22 -51 -5 0 -10 9 -10 20 0 16 -7 20 -35 20 -31 0 -35 -3 -35 -25 0 -38 33
-65 81 -65 53 0 76 13 84 50 9 42 -2 68 -38 91 l-32 19 33 0 c29 0 32 3 32 29
0 39 -32 61 -87 61 -32 0 -46 -5 -57 -22z m74 -50 c0 -19 -2 -20 -10 -8 -13
19 -13 30 0 30 6 0 10 -10 10 -22z"/>
<path d="M1932 417 c-12 -13 -22 -35 -22 -50 0 -24 4 -27 33 -27 l32 0 -32
-20 c-29 -17 -33 -25 -33 -64 0 -24 6 -48 13 -54 6 -6 45 -10 85 -11 l72 0 0
104 c0 92 -3 108 -20 125 -29 29 -99 28 -128 -3z m65 -64 c-3 -10 -5 -4 -5 12
0 17 2 24 5 18 2 -7 2 -21 0 -30z m0 -100 c-3 -10 -5 -2 -5 17 0 19 2 27 5 18
2 -10 2 -26 0 -35z"/>
<path d="M2110 315 l0 -125 40 0 40 0 0 76 c0 67 2 76 20 81 16 4 20 14 20 49
0 45 -7 53 -28 32 -9 -9 -12 -9 -12 0 0 7 -16 12 -40 12 l-40 0 0 -125z"/>
<path d="M2268 429 c-13 -7 -18 -23 -18 -54 0 -37 5 -47 33 -69 l32 -26 -32 0
c-30 0 -33 -3 -33 -28 0 -41 28 -62 82 -62 58 0 81 23 76 76 -3 32 -10 43 -45
67 -39 26 -57 57 -33 57 6 0 10 -9 10 -20 0 -16 7 -20 35 -20 31 0 35 3 35 25
0 39 -33 65 -82 65 -24 0 -51 -5 -60 -11z m72 -175 c0 -8 -4 -14 -10 -14 -5 0
-10 9 -10 21 0 11 5 17 10 14 6 -3 10 -13 10 -21z"/>
</g>
</svg>
