<?xml version="1.0" standalone="no"?>
<!DOCTYPE svg PUBLIC "-//W3C//DTD SVG 20010904//EN"
 "http://www.w3.org/TR/2001/REC-SVG-20010904/DTD/svg10.dtd">
<svg version="1.0" xmlns="http://www.w3.org/2000/svg"
 width="155.000000pt" height="28.000000pt" viewBox="0 0 155.000000 28.000000"
 preserveAspectRatio="xMidYMid meet">

<g transform="translate(0.000000,28.000000) scale(0.100000,-0.100000)"
fill="#000000" stroke="none">
<path d="M22 143 l3 -128 25 0 c22 0 26 5 30 45 l5 45 47 3 c46 3 48 5 48 32
0 27 -2 29 -47 32 -40 3 -48 6 -48 23 0 18 8 20 68 23 64 3 67 4 67 27 0 25 0
25 -100 25 l-101 0 3 -127z"/>
<path d="M828 254 c-52 -28 -75 -115 -45 -174 19 -37 74 -70 118 -70 71 0 105
29 80 69 -8 12 -14 13 -36 3 -39 -18 -69 -15 -93 11 -32 34 -28 70 10 102 22
19 37 24 52 20 12 -4 32 -8 46 -9 31 -1 40 32 14 51 -24 17 -112 16 -146 -3z"/>
<path d="M640 234 c0 -17 -6 -28 -20 -31 -14 -4 -20 -14 -20 -33 0 -19 6 -29
20 -33 17 -4 20 -14 20 -56 0 -47 3 -52 27 -62 38 -14 67 -8 71 17 2 14 -5 24
-23 32 -21 10 -26 18 -23 40 2 21 9 28 31 30 24 3 28 7 25 30 -2 18 -10 28
-28 32 -18 4 -26 13 -28 33 -3 21 -9 27 -28 27 -19 0 -24 -5 -24 -26z"/>
<path d="M263 189 c-29 -11 -43 -39 -43 -87 0 -65 23 -84 108 -88 l72 -4 0 94
0 94 -58 -1 c-32 0 -68 -4 -79 -8z m71 -72 c8 -13 7 -21 -6 -34 -16 -16 -19
-16 -38 2 -19 17 -19 19 -3 37 19 21 32 20 47 -5z"/>
<path d="M458 189 c-22 -12 -24 -71 -4 -88 8 -7 27 -16 43 -20 25 -7 33 -29 8
-24 -5 1 -22 5 -36 9 -20 4 -28 1 -33 -12 -17 -43 95 -63 134 -24 23 23 24 29
11 63 -7 17 -21 27 -48 34 -47 11 -45 29 3 25 37 -3 59 22 33 39 -19 12 -90
11 -111 -2z"/>
<path d="M1039 170 c-21 -21 -29 -38 -29 -65 0 -27 8 -44 29 -65 26 -26 34
-29 92 -27 l64 2 0 90 0 90 -64 2 c-58 2 -66 -1 -92 -27z m85 -48 c15 -18 15
-20 -4 -37 -16 -14 -22 -15 -35 -5 -18 15 -19 32 -3 48 16 16 22 15 42 -6z"/>
<path d="M1234 185 c-3 -6 -4 -47 -2 -91 3 -78 3 -79 31 -82 26 -3 27 -2 27
50 0 61 11 78 52 78 24 0 28 4 28 29 l0 30 -66 -1 c-42 0 -67 -5 -70 -13z"/>
<path d="M1412 191 c-9 -5 -12 -24 -10 -52 3 -40 6 -45 38 -55 19 -7 33 -16
30 -20 -3 -5 -9 -7 -15 -5 -5 2 -21 5 -35 5 -35 1 -41 -39 -8 -48 76 -20 128
0 128 48 0 37 -15 54 -57 65 -37 10 -27 27 15 23 26 -3 32 0 32 16 0 11 -7 23
-16 26 -23 9 -87 7 -102 -3z"/>
</g>
</svg>
